<?xml version="1.0" encoding="utf-8"?>
<!-- Generator: Adobe Illustrator 22.1.0, SVG Export Plug-In . SVG Version: 6.00 Build 0)  -->
<svg version="1.1" id="Layer_1" xmlns="http://www.w3.org/2000/svg" xmlns:xlink="http://www.w3.org/1999/xlink" x="0px" y="0px"
	 viewBox="0 0 256 256" style="enable-background:new 0 0 256 256;" xml:space="preserve">
<style type="text/css">
	.st0{fill:#D73735;}
	.st1{fill:#F85252;}
	.st2{fill:#EDAF85;}
	.st3{fill:#F7C09A;}
	.st4{fill:#D8D6D7;}
	.st5{fill:#FFFFFF;}
	.st6{fill:#1C868E;}
	.st7{fill:#40C4DF;}
	.st8{fill:#491352;}
	.st9{fill:#56C1B3;}
	.st10{fill:#7BEFE4;}
</style>
<g>
	<path class="st1" d="M246.5,235.439H9.5c-2.761,0-5-2.239-5-5V25.561c0-2.761,2.239-5,5-5h237c2.761,0,5,2.239,5,5v204.879
		C251.5,233.201,249.261,235.439,246.5,235.439z"/>
	<path class="st4" d="M251.5,55.74v174.7c0,2.76-2.24,5-5,5H9.5c-2.76,0-5-2.24-5-5V25.56c0-2.76,2.24-5,5-5h59.95l25.51,31.7
		c1.77,2.2,4.45,3.48,7.28,3.48H251.5z"/>
	<path class="st5" d="M251.5,55.74v174.7c0,2.761-2.239,5-5,5H24.73c-2.761,0-5-2.239-5-5V25.56c0-2.761,2.239-5,5-5h44.72
		l25.51,31.7c1.77,2.2,4.45,3.48,7.28,3.48H251.5z"/>
	<path class="st0" d="M189.07,133.33v4.01c0,4.37-3.55,7.91-7.92,7.91H74.85c-4.37,0-7.92-3.54-7.92-7.91v-4.01
		c0-4.37,3.55-7.91,7.92-7.91h106.3C185.52,125.42,189.07,128.96,189.07,133.33z"/>
	<path class="st1" d="M189.07,133.33v4.01c0,4.37-3.55,7.91-7.92,7.91H88.6c-4.37,0-7.92-3.54-7.92-7.91v-4.01
		c0-4.37,3.55-7.91,7.92-7.91h92.55C185.52,125.42,189.07,128.96,189.07,133.33z"/>
	<path class="st6" d="M162.16,104.66v20.76H93.84v-20.76c0-18.07,14.65-32.72,32.72-32.72h2.88c1.85,0,3.67,0.15,5.44,0.45
		C150.36,74.98,162.16,88.44,162.16,104.66z"/>
	<path class="st7" d="M162.16,104.66v20.76h-54.57v-20.76c0-16.22,11.8-29.68,27.29-32.27C150.36,74.98,162.16,88.44,162.16,104.66z
		"/>
	<path class="st9" d="M158.87,145.25l-2.74,7.84c-1.25,3.58-4.62,5.98-8.42,5.98h-39.42c-3.8,0-7.17-2.4-8.42-5.98l-2.74-7.84
		H158.87z"/>
	<path class="st10" d="M158.87,145.25l-2.74,7.84c-1.25,3.58-4.62,5.98-8.42,5.98h-25.42c-3.79,0-7.17-2.4-8.42-5.98l-2.73-7.84
		H158.87z"/>
	<circle class="st5" cx="94.683" cy="135.334" r="4.123"/>
	<circle class="st5" cx="116.894" cy="135.334" r="4.123"/>
	<circle class="st5" cx="139.106" cy="135.334" r="4.123"/>
	<circle class="st5" cx="161.317" cy="135.334" r="4.123"/>
	<path class="st0" d="M164.31,220.91H91.69c-3.7,0-6.12-3.87-4.5-7.19l26.68-54.65h28.26l26.68,54.65
		C170.43,217.04,168.01,220.91,164.31,220.91z"/>
	<path class="st1" d="M164.31,220.91h-58.59c-3.69,0-6.11-3.87-4.49-7.19l26.67-54.65h14.23l26.68,54.65
		C170.43,217.04,168.01,220.91,164.31,220.91z"/>
	<path class="st5" d="M120.611,200.402l-3.198,1.259l-5.992-15.221l-4.366,1.719l-5.235,20.466l1.172,2.978l11.83-4.658l2.027,5.149
		l4.045-1.592l-2.027-5.148l3.198-1.259L120.611,200.402z M113.497,203.202l-6.894,2.715l3.05-12.478L113.497,203.202z"/>
	<path class="st5" d="M134.238,189.404c1.606-1.885,2.758-4.784,3.519-8.863c0.754-4.028,0.719-7.114-0.102-9.432
		c-1.002-2.832-3.215-4.585-6.575-5.213c-3.374-0.631-6.08,0.204-8.041,2.481c-1.605,1.864-2.753,4.729-3.505,8.759
		c-0.763,4.081-0.735,7.2,0.086,9.538c1.001,2.852,3.221,4.618,6.598,5.25c0.717,0.134,1.403,0.201,2.06,0.201
		C130.696,192.123,132.697,191.213,134.238,189.404z M133.486,179.742c-1.044,5.585-2.499,8.897-6.515,8.144
		c-4.043-0.755-4.21-4.369-3.166-9.953c0.409-2.186,0.974-4.637,2.072-6.253c0.853-1.254,1.931-1.86,3.342-1.86
		c0.349,0,0.717,0.037,1.107,0.11c1.957,0.366,3.066,1.392,3.488,3.232C134.252,175.068,133.893,177.558,133.486,179.742z"/>
	<path class="st5" d="M147.292,204.078l1.971-16.239l-4.659-0.566l-14.341,15.512l-0.387,3.177l12.623,1.531l-0.667,5.493
		l4.316,0.524l0.666-5.493l3.412,0.414l0.477-3.939L147.292,204.078z M135.759,202.679l8.619-9.525l-1.264,10.417L135.759,202.679z"
		/>
	<path class="st5" d="M128.861,102.525L128.861,102.525c-7.608,0-14.164,5.358-15.678,12.814l-2.046,10.077h35.447l-2.046-10.077
		C143.025,107.883,136.469,102.525,128.861,102.525z"/>
	<circle class="st5" cx="205.342" cy="38.457" r="6.896"/>
	<circle class="st5" cx="230.584" cy="38.457" r="6.896"/>
	<path class="st8" d="M181.15,123.417h-16.993v-18.759c0-19.145-15.575-34.721-34.721-34.721h-2.873
		c-19.146,0-34.721,15.576-34.721,34.721v18.759H74.85c-5.468,0-9.917,4.449-9.917,9.917v4.002c0,5.468,4.449,9.917,9.917,9.917
		h20.864l2.265,6.497c1.527,4.379,5.67,7.321,10.307,7.321h2.382l-25.27,51.771c-1.066,2.184-0.934,4.718,0.354,6.779
		s3.507,3.292,5.937,3.292h72.627c2.43,0,4.649-1.23,5.937-3.292s1.42-4.595,0.354-6.779l-25.27-51.771h2.382
		c4.637,0,8.779-2.942,10.307-7.322l2.265-6.497h20.864c5.468,0,9.917-4.449,9.917-9.917v-4.002
		C191.067,127.865,186.618,123.417,181.15,123.417z M95.843,104.657c0-16.939,13.781-30.721,30.721-30.721h2.873
		c16.939,0,30.721,13.781,30.721,30.721v18.759H148.22l-1.721-8.475c-0.896-4.411-3.396-8.17-6.802-10.749
		c1.288-2.015,2.993-5.482,2.558-9.139c2.609-1.199,4.428-3.83,4.428-6.884c0-4.179-3.399-7.579-7.578-7.579s-7.578,3.4-7.578,7.579
		c0,3.909,2.975,7.135,6.78,7.536c0.223,2.456-1.093,4.974-2.042,6.43c-2.275-1.034-4.786-1.61-7.404-1.61
		c-3.191,0-6.227,0.85-8.865,2.352c-0.95-1.117-2.282-3.03-2.607-5.241c3.865-0.342,6.906-3.592,6.906-7.544
		c0-4.179-3.4-7.579-7.579-7.579s-7.578,3.4-7.578,7.579c0,2.957,1.706,5.516,4.181,6.765c0.068,3.623,1.984,6.625,3.439,8.388
		c-2.753,2.506-4.754,5.854-5.535,9.697l-1.721,8.475h-13.66V104.657z M128.861,104.525c6.63,0,12.398,4.715,13.718,11.212
		l1.559,7.679h-30.553l1.559-7.679C116.463,109.24,122.231,104.525,128.861,104.525z M139.105,91.749
		c-1.973,0-3.578-1.605-3.578-3.579s1.605-3.579,3.578-3.579s3.578,1.605,3.578,3.579S141.078,91.749,139.105,91.749z
		 M116.716,93.67c-1.973,0-3.578-1.605-3.578-3.578s1.605-3.579,3.578-3.579c1.974,0,3.579,1.605,3.579,3.579
		S118.689,93.67,116.716,93.67z M167.01,214.596c0.463,0.95,0.408,2.008-0.152,2.905c-0.56,0.896-1.487,1.411-2.544,1.411H91.687
		c-1.057,0-1.984-0.514-2.544-1.411c-0.561-0.896-0.615-1.955-0.152-2.905l26.127-53.526h25.766L167.01,214.596z M154.244,152.432
		c-0.968,2.774-3.592,4.639-6.529,4.639c-8.003,0-31.429,0-39.43,0c-2.938,0-5.562-1.864-6.529-4.638l-1.806-5.18h56.1
		L154.244,152.432z M187.067,137.335c0,3.262-2.654,5.917-5.917,5.917c-35.563,0-84.647,0-106.301,0
		c-3.263,0-5.917-2.654-5.917-5.917v-4.002c0-3.262,2.654-5.917,5.917-5.917h18.993h17.295h35.447h15.572h18.993
		c3.263,0,5.917,2.654,5.917,5.917V137.335z"/>
	<path class="st8" d="M94.684,129.211c-3.376,0-6.123,2.747-6.123,6.124s2.747,6.123,6.123,6.123s6.123-2.747,6.123-6.123
		S98.06,129.211,94.684,129.211z M94.684,137.458c-1.171,0-2.123-0.953-2.123-2.123c0-1.171,0.952-2.124,2.123-2.124
		s2.123,0.953,2.123,2.124C96.807,136.505,95.854,137.458,94.684,137.458z"/>
	<path class="st8" d="M116.895,129.211c-3.376,0-6.123,2.747-6.123,6.124s2.747,6.123,6.123,6.123s6.123-2.747,6.123-6.123
		S120.271,129.211,116.895,129.211z M116.895,137.458c-1.171,0-2.123-0.953-2.123-2.123c0-1.171,0.952-2.124,2.123-2.124
		s2.123,0.953,2.123,2.124C119.018,136.505,118.065,137.458,116.895,137.458z"/>
	<path class="st8" d="M139.105,129.211c-3.376,0-6.123,2.747-6.123,6.124s2.747,6.123,6.123,6.123s6.123-2.747,6.123-6.123
		S142.481,129.211,139.105,129.211z M139.105,137.458c-1.171,0-2.123-0.953-2.123-2.123c0-1.171,0.952-2.124,2.123-2.124
		s2.123,0.953,2.123,2.124C141.229,136.505,140.276,137.458,139.105,137.458z"/>
	<path class="st8" d="M161.316,129.211c-3.376,0-6.123,2.747-6.123,6.124s2.747,6.123,6.123,6.123s6.123-2.747,6.123-6.123
		S164.692,129.211,161.316,129.211z M161.316,137.458c-1.171,0-2.123-0.953-2.123-2.123c0-1.171,0.952-2.124,2.123-2.124
		s2.123,0.953,2.123,2.124C163.439,136.505,162.487,137.458,161.316,137.458z"/>
	<path class="st8" d="M107.054,188.159l-5.235,20.466l1.172,2.979l11.83-4.658l2.027,5.149l4.045-1.592l-2.027-5.148l3.198-1.259
		l-1.453-3.693l-3.198,1.259l-5.992-15.221L107.054,188.159z M106.603,205.917l3.05-12.478l3.844,9.763L106.603,205.917z"/>
	<path class="st8" d="M126.218,191.923c7.234,1.353,10.189-4.146,11.539-11.382c1.339-7.159,0.544-13.296-6.676-14.646
		c-7.24-1.353-10.206,4.058-11.547,11.24C118.181,184.367,118.948,190.563,126.218,191.923z M123.805,177.934
		c0.834-4.463,2.055-8.844,6.522-8.003c4.406,0.823,4.01,5.246,3.159,9.812c-1.044,5.585-2.5,8.897-6.515,8.144
		C122.928,187.131,122.761,183.518,123.805,177.934z"/>
	<path class="st8" d="M129.877,205.963l12.623,1.531l-0.667,5.493l4.316,0.523l0.666-5.492l3.412,0.414l0.477-3.939l-3.412-0.414
		l1.971-16.239l-4.659-0.566l-14.341,15.512L129.877,205.963z M144.378,193.154l-1.264,10.417l-7.355-0.893L144.378,193.154z"/>
	<path class="st8" d="M127.044,120.419h1.414c3.446,0,6.588-2.03,8.004-5.171c0.454-1.007,0.006-2.191-1.001-2.645
		c-1.008-0.453-2.19-0.006-2.646,1.001c-0.771,1.71-2.481,2.815-4.357,2.815h-1.414c-1.104,0-2,0.896-2,2
		S125.939,120.419,127.044,120.419z"/>
	<path class="st8" d="M246.5,18.561H69.449H9.72H9.5c-3.859,0-7,3.14-7,7v0.219v204.44v0.219c0,3.86,3.141,7,7,7h0.22H246.28h0.22
		c3.859,0,7-3.14,7-7v-0.219V55.739V25.561C253.5,21.701,250.359,18.561,246.5,18.561z M249.5,25.561v28.178H102.235
		c-2.232,0-4.315-0.998-5.716-2.737L73.626,22.561H246.5C248.154,22.561,249.5,23.906,249.5,25.561z M9.72,233.439
		c-1.775,0-3.22-1.444-3.22-3.219V25.78c0-1.775,1.444-3.219,3.22-3.219h58.771L93.404,53.51c2.163,2.688,5.382,4.229,8.831,4.229
		H249.5V230.22c0,1.775-1.444,3.219-3.22,3.219H9.72z"/>
	<path class="st8" d="M58.76,37.618H24.217c-1.104,0-2,0.896-2,2s0.896,2,2,2H58.76c1.104,0,2-0.896,2-2S59.864,37.618,58.76,37.618
		z"/>
	<path class="st8" d="M205.343,47.354c4.905,0,8.896-3.991,8.896-8.896c0-4.906-3.991-8.896-8.896-8.896s-8.896,3.991-8.896,8.896
		C196.446,43.363,200.438,47.354,205.343,47.354z M205.343,33.561c2.7,0,4.896,2.197,4.896,4.896s-2.196,4.896-4.896,4.896
		s-4.896-2.196-4.896-4.896S202.643,33.561,205.343,33.561z"/>
	<path class="st8" d="M230.584,47.354c4.905,0,8.896-3.991,8.896-8.896c0-4.906-3.991-8.896-8.896-8.896s-8.896,3.991-8.896,8.896
		C221.688,43.363,225.679,47.354,230.584,47.354z M230.584,33.561c2.7,0,4.896,2.197,4.896,4.896s-2.196,4.896-4.896,4.896
		c-2.699,0-4.896-2.196-4.896-4.896S227.885,33.561,230.584,33.561z"/>
</g>
</svg>
