<?xml version="1.0" encoding="iso-8859-1"?>
<!-- Generator: Adobe Illustrator 19.0.0, SVG Export Plug-In . SVG Version: 6.00 Build 0)  -->
<svg version="1.1" id="Layer_1" xmlns="http://www.w3.org/2000/svg" xmlns:xlink="http://www.w3.org/1999/xlink" x="0px" y="0px"
	 viewBox="0 0 512 512" style="enable-background:new 0 0 512 512;" xml:space="preserve">
<path style="fill:#CE3838;" d="M158.749,431.211v27.092h-36.563c-7.484,0-13.546-6.062-13.546-13.546
	c0-3.736,1.513-7.123,3.962-9.584c2.45-2.45,5.836-3.962,9.584-3.962H158.749z"/>
<g>
	<polygon style="fill:#B3B3B3;" points="361.366,475.732 361.366,503.118 158.749,503.118 158.749,458.303 158.749,431.211 
		200.64,431.211 200.64,475.732 	"/>
	<polygon style="fill:#B3B3B3;" points="200.64,82.408 200.64,82.419 158.749,82.419 158.749,82.408 158.749,35.437 200.64,35.437 	
		"/>
</g>
<polygon style="fill:#E6E6E6;" points="403.257,8.051 403.257,475.732 200.64,475.732 200.64,431.211 369.392,431.211 
	369.392,82.419 200.64,82.419 200.64,8.051 "/>
<path style="fill:#EE4948;" d="M125.132,82.419c-9.11,0-16.492,7.383-16.492,16.481v345.856c0-3.736,1.513-7.123,3.962-9.584
	c2.45-2.45,5.836-3.962,9.584-3.962h247.206V82.419H125.132z"/>
<path style="fill:#B3B3B3;" d="M200.64,431.211v23.706h138.341c5.573,0,10.091-4.518,10.091-10.091v-13.615H200.64z"/>
<g>
	<path style="fill:#CE3838;" d="M273.282,255.122h50.392c0,44.883-36.383,81.266-81.266,81.266
		C259.453,336.387,273.282,300.005,273.282,255.122z"/>
	<path style="fill:#CE3838;" d="M211.522,255.122h61.759c0,44.883-13.828,81.266-30.874,81.266
		C225.351,336.387,211.522,300.005,211.522,255.122z"/>
	<path style="fill:#CE3838;" d="M211.522,255.122c0,44.883,13.828,81.266,30.885,81.266c-44.894,0-81.277-36.383-81.277-81.266
		L211.522,255.122L211.522,255.122z"/>
	<path style="fill:#CE3838;" d="M242.408,173.845c-17.057,0-30.885,36.394-30.885,81.277h-50.392
		C161.131,210.239,197.513,173.845,242.408,173.845z"/>
	<path style="fill:#CE3838;" d="M242.408,173.845c17.046,0,30.874,36.394,30.874,81.277h-61.759
		C211.522,210.239,225.351,173.845,242.408,173.845z"/>
	<path style="fill:#CE3838;" d="M323.673,255.122h-50.392c0-44.883-13.828-81.277-30.874-81.277
		C287.291,173.845,323.673,210.239,323.673,255.122z"/>
	<path style="fill:#CE3838;" d="M138.723,82.419v348.791h-16.538c-3.748,0-7.134,1.513-9.584,3.962
		c-2.45,2.461-3.962,5.847-3.962,9.584V98.901c0-9.099,7.383-16.481,16.492-16.481H138.723z"/>
</g>
<path d="M403.309,0H200.692c-4.676,0-8.466,3.791-8.466,8.466v18.919h-33.425c-4.676,0-8.466,3.791-8.466,8.466v38.516h-25.151
	c-13.762,0-24.959,11.191-24.959,24.948v345.856c0,12.137,9.875,22.013,22.013,22.013h28.097v36.349
	c0,4.676,3.791,8.466,8.466,8.466h202.617c4.676,0,8.466-3.791,8.466-8.466v-18.919h33.425c4.676,0,8.466-3.791,8.466-8.466V8.466
	C411.775,3.791,407.985,0,403.309,0z M167.267,44.319h24.959v30.05h-24.959V44.319z M122.237,450.252c-2.801,0-5.08-2.279-5.08-5.08
	c0-1.359,0.532-2.642,1.482-3.597c0.956-0.956,2.234-1.483,3.598-1.483h28.097v10.16H122.237z M394.843,467.681H284.227
	c-4.676,0-8.466,3.791-8.466,8.466s3.791,8.466,8.466,8.466h68.724v10.453H167.267v-54.975h24.959v36.055
	c0,4.676,3.791,8.466,8.466,8.466h54.749c4.676,0,8.466-3.791,8.466-8.466s-3.791-8.466-8.466-8.466h-46.283v-27.589h160.285
	c4.676,0,8.466-3.791,8.466-8.466V173.899c0-4.676-3.791-8.466-8.466-8.466s-8.466,3.791-8.466,8.466V423.16h-238.74
	c-1.735,0-3.433,0.222-5.08,0.61V99.316c0-4.419,3.6-8.015,8.026-8.015h235.794v50.99c0,4.676,3.791,8.466,8.466,8.466
	s8.466-3.791,8.466-8.466V82.835c0-4.676-3.791-8.466-8.466-8.466h-27.092V47.276c0-4.676-3.791-8.466-8.466-8.466
	s-8.466,3.791-8.466,8.466v27.092h-44.014V47.276c0-4.676-3.791-8.466-8.466-8.466s-8.466,3.791-8.466,8.466v27.092h-13.546V47.276
	c0-4.676-3.791-8.466-8.466-8.466c-4.676,0-8.466,3.791-8.466,8.466v27.092h-24.835V16.933h185.684L394.843,467.681L394.843,467.681
	z"/>
<path d="M305.107,203.081c-3.874,2.618-4.894,7.88-2.277,11.755c6.545,9.689,10.601,20.7,11.936,32.235h-33.126
	c-0.738-19.54-4.024-37.76-9.437-52.009c-0.991-2.609-2.052-5.038-3.168-7.317c4.238,1.661,8.329,3.715,12.212,6.166
	c3.955,2.496,9.183,1.313,11.678-2.641c2.496-3.954,1.314-9.183-2.64-11.678c-14.301-9.026-30.839-13.797-47.825-13.797
	c-49.484,0-89.743,40.259-89.743,89.743c0,49.479,40.259,89.732,89.743,89.732c49.479,0,89.732-40.254,89.732-89.732
	c0-17.98-5.301-35.333-15.33-50.18C314.245,201.483,308.982,200.464,305.107,203.081z M242.46,328.337
	c-7.14,0-20.618-22.627-22.254-64.333h44.497C263.068,305.711,249.596,328.337,242.46,328.337z M264.702,247.071h-44.497
	c1.635-41.714,15.114-64.344,22.254-64.344C249.596,182.727,263.069,205.357,264.702,247.071z M215.856,187.782
	c-1.109,2.268-2.164,4.685-3.149,7.279c-5.415,14.249-8.701,32.469-9.439,52.011h-33.11
	C173.307,220.008,191.35,197.439,215.856,187.782z M170.157,264.004h33.11c0.738,19.54,4.024,37.759,9.439,52.006
	c0.984,2.591,2.04,5.005,3.147,7.272C191.349,313.625,173.307,291.062,170.157,264.004z M269.07,323.278
	c1.104-2.261,2.152-4.685,3.134-7.27c5.414-14.247,8.699-32.466,9.437-52.005h33.11C311.601,291.059,293.567,313.621,269.07,323.278
	z"/>
<path d="M200.128,140.395h84.652c4.676,0,8.466-3.791,8.466-8.466c0-4.676-3.791-8.466-8.466-8.466h-84.652
	c-4.676,0-8.466,3.791-8.466,8.466C191.661,136.604,195.452,140.395,200.128,140.395z"/>
<path d="M284.78,375.748h-84.652c-4.676,0-8.466,3.791-8.466,8.466s3.791,8.466,8.466,8.466h84.652c4.676,0,8.466-3.791,8.466-8.466
	S289.456,375.748,284.78,375.748z"/>
<g>
</g>
<g>
</g>
<g>
</g>
<g>
</g>
<g>
</g>
<g>
</g>
<g>
</g>
<g>
</g>
<g>
</g>
<g>
</g>
<g>
</g>
<g>
</g>
<g>
</g>
<g>
</g>
<g>
</g>
</svg>
