<?xml version="1.0" encoding="utf-8"?>
<!-- Generator: Adobe Illustrator 18.0.0, SVG Export Plug-In . SVG Version: 6.00 Build 0)  -->
<!DOCTYPE svg PUBLIC "-//W3C//DTD SVG 1.1//EN" "http://www.w3.org/Graphics/SVG/1.1/DTD/svg11.dtd">
<svg version="1.1" id="ecommerce_1_" xmlns="http://www.w3.org/2000/svg" xmlns:xlink="http://www.w3.org/1999/xlink" x="0px"
	 y="0px" viewBox="0 0 115 115" style="enable-background:new 0 0 115 115;" xml:space="preserve">
<style type="text/css">
	.st0{fill:#FFEEAD;}
	.st1{fill:#C9B77D;}
	.st2{fill:#99734A;}
	.st3{fill:#FF6F69;}
	.st4{fill:#96CEB4;}
	.st5{fill:none;}
	.st6{fill:#AA9865;}
	.st7{fill:#71A58A;}
	.st8{fill:#FFCC5C;}
	.st9{fill:#825E3B;}
	.st10{fill:#639376;}
	.st11{fill:#E05858;}
	.st12{fill:#C1821E;}
	.st13{fill:#D6A041;}
	.st14{fill:#B28559;}
	.st15{fill:#BF4343;}
	.st16{fill:#D3C089;}
	.st17{fill:#7C5C3C;}
	.st18{fill:#FDCC5C;}
	.st19{fill:#FFFFFF;}
</style>
<g id="customer_review_1_">
	<g>
		<g>
			<path class="st7" d="M88.901,54.447H25.793c-5.95,0-10.819,4.868-10.819,10.818V91.41c0,5.95,4.868,10.818,10.819,10.818h41.752
				l-6.352,10.573c-0.757,1.261,0.633,2.716,1.926,2.016l23.291-12.59h2.49c5.95,0,10.818-4.868,10.818-10.818V65.265
				C99.719,59.315,94.851,54.447,88.901,54.447z"/>
		</g>
	</g>
	<g>
		<g>
			<path class="st4" d="M88.901,51.445H25.793c-5.95,0-10.819,4.868-10.819,10.818v26.145c0,5.95,4.868,10.818,10.819,10.818h41.752
				L61.194,109.8c-0.757,1.261,0.633,2.716,1.926,2.016l23.291-12.59h2.49c5.95,0,10.818-4.868,10.818-10.818V62.264
				C99.719,56.314,94.851,51.445,88.901,51.445z"/>
		</g>
	</g>
	<g>
		<g>
			<path class="st3" d="M99.553,33.103c0.925-0.902,0.415-2.473-0.864-2.659l-7.167-1.041c-0.508-0.074-0.947-0.393-1.174-0.853
				l-3.205-6.494c-0.572-1.159-2.224-1.159-2.796,0l-3.205,6.494c-0.227,0.46-0.666,0.779-1.174,0.853l-7.167,1.041
				c-1.279,0.186-1.789,1.757-0.864,2.659l5.186,5.055c0.367,0.358,0.535,0.874,0.448,1.38l-1.224,7.138
				c-0.218,1.274,1.118,2.245,2.262,1.643l6.41-3.37c0.454-0.239,0.997-0.239,1.451,0l6.41,3.37c1.144,0.601,2.48-0.37,2.262-1.643
				l-1.224-7.138c-0.087-0.506,0.081-1.022,0.448-1.38L99.553,33.103z"/>
		</g>
	</g>
	<g>
		<g>
			<path class="st8" d="M72.958,11.916c0.925-0.902,0.415-2.473-0.864-2.659l-7.167-1.041c-0.508-0.074-0.947-0.393-1.174-0.853
				l-3.205-6.494c-0.572-1.159-2.224-1.159-2.796,0l-3.205,6.494c-0.227,0.46-0.666,0.779-1.174,0.853l-7.167,1.041
				c-1.279,0.186-1.789,1.757-0.864,2.659l5.186,5.055c0.367,0.358,0.535,0.874,0.448,1.38l-1.224,7.138
				c-0.218,1.274,1.118,2.245,2.262,1.643l6.41-3.37c0.454-0.239,0.997-0.239,1.451,0l6.41,3.37c1.144,0.601,2.481-0.37,2.262-1.643
				l-1.224-7.138c-0.087-0.506,0.081-1.022,0.448-1.38L72.958,11.916z"/>
		</g>
	</g>
	<g>
		<g>
			<path class="st8" d="M44.108,31.751c0.925-0.902,0.415-2.473-0.864-2.659l-7.167-1.041c-0.508-0.074-0.947-0.393-1.174-0.853
				l-3.205-6.494c-0.572-1.159-2.224-1.159-2.796,0l-3.205,6.494c-0.227,0.46-0.666,0.779-1.174,0.853l-7.167,1.041
				c-1.279,0.186-1.789,1.757-0.864,2.659l5.186,5.055c0.367,0.358,0.535,0.874,0.448,1.38l-1.224,7.137
				c-0.218,1.274,1.118,2.245,2.262,1.643l6.41-3.37c0.454-0.239,0.997-0.239,1.451,0l6.41,3.37c1.144,0.601,2.48-0.37,2.262-1.643
				l-1.224-7.137c-0.087-0.506,0.081-1.022,0.448-1.38L44.108,31.751z"/>
		</g>
	</g>
	<g>
		<g>
			<path class="st0" d="M88.25,60.911H49.324c-1.166,0-2.12,0.954-2.12,2.12v0.719c0,1.166,0.954,2.12,2.12,2.12H88.25
				c1.166,0,2.12-0.954,2.12-2.12v-0.719C90.37,61.865,89.416,60.911,88.25,60.911z"/>
		</g>
	</g>
	<g>
		<g>
			<path class="st0" d="M88.25,72.631H49.324c-1.166,0-2.12,0.954-2.12,2.12v0.719c0,1.166,0.954,2.12,2.12,2.12H88.25
				c1.166,0,2.12-0.954,2.12-2.12v-0.719C90.37,73.585,89.416,72.631,88.25,72.631z"/>
		</g>
	</g>
	<g>
		<g>
			<path class="st0" d="M88.25,84.352H26.786c-1.166,0-2.12,0.954-2.12,2.12v0.719c0,1.166,0.954,2.12,2.12,2.12H88.25
				c1.166,0,2.12-0.954,2.12-2.12v-0.719C90.37,85.305,89.416,84.352,88.25,84.352z"/>
		</g>
	</g>
	<g>
		<g>
			<circle class="st2" cx="33.381" cy="69.1" r="8.79"/>
		</g>
	</g>
</g>
</svg>
