<?xml version="1.0" encoding="utf-8"?>
<!-- Generator: Adobe Illustrator 16.0.0, SVG Export Plug-In . SVG Version: 6.00 Build 0)  -->
<!DOCTYPE svg PUBLIC "-//W3C//DTD SVG 1.1//EN" "http://www.w3.org/Graphics/SVG/1.1/DTD/svg11.dtd">
<svg version="1.1" xmlns="http://www.w3.org/2000/svg" xmlns:xlink="http://www.w3.org/1999/xlink" x="0px" y="0px" width="64px"
	 height="64px" viewBox="0 0 64 64" enable-background="new 0 0 64 64" xml:space="preserve">
<g id="_x32_5_website_x2C__structure_x2C__page_x2C__interface_x2C__website_x2C__window_x2C__program">
</g>
<g id="_x32_4_social_x2C__network_x2C__page_x2C__interface_x2C__website_x2C__window">
</g>
<g id="_x32_3_code_x2C__optimization_x2C__programming_x2C__develop_x2C__developer_x2C__program">
</g>
<g id="_x32_2_clean_x2C__code_x2C__programming_x2C__develop_x2C__developer_x2C__program">
</g>
<g id="_x32_1_map_x2C__service_x2C__search_x2C__interface_x2C__window_x2C__page_x2C__website">
</g>
<g id="_x32_0_player_x2C__program_x2C___album_x2C__music_x2C__interface_x2C__window">
</g>
<g id="_x31_9_online_x2C__training_x2C__page_x2C__interface_x2C__website_x2C__window_x2C__book_x2C__bookmark">
</g>
<g id="_x31_8_landing_x2C__page_x2C__interface_x2C__website_x2C__window_x2C__web_x2C__laptop">
</g>
<g id="_x31_7_search_x2C__system_x2C__page_x2C__interface_x2C__website_x2C__window_x2C__web">
</g>
<g id="_x31_6_antivirus_x2C__program_x2C__shield_x2C__interface_x2C__window_x2C__protection">
</g>
<g id="_x31_5_photo_x2C__retouching_x2C__program_x2C__interface_x2C__design_x2C__monitor">
</g>
<g id="_x31_4_messenger_x2C__chat_x2C__talk_x2C__page_x2C__interface_x2C__website_x2C__window">
</g>
<g id="_x31_3_online_x2C__shop_x2C__market_x2C__store_x2C__website_x2C__web_x2C__interface">
</g>
<g id="_x31_2_video_x2C__web_x2C__page_x2C__interface_x2C__website_x2C__player_x2C__window">
</g>
<g id="_x31_1_computer_x2C__game_x2C__interface_x2C__video_x2C__computer_x2C__monitor_x2C__window">
</g>
<g id="_x31_0_vector_x2C__graphics_x2C__program_x2C__interface_x2C__design_x2C__illustration_x2C__monitor">
</g>
<g id="_x39__website_x2C__programming_x2C__develop_x2C__developer_x2C__web_x2C__page_x2C__interface_1_">
</g>
<g id="_x38__programming_x2C__window_x2C__program_x2C__monitor_x2C__computer_x2C__develop_x2C__developer">
</g>
<g id="_x37__responsive_x2C__monitor_x2C__website_x2C__phone_x2C__interface_x2C__page_x2C__design">
</g>
<g id="_x36__page_x2C__speed_x2C__stopwatch_x2C__window_x2C__website_x2C__web_x2C__interface">
</g>
<g id="_x35__data_x2C__graph_x2C__analytics_x2C__program_x2C__page_x2C__chat_x2C__interface">
</g>
<g id="_x34__reviews_x2C__chat_x2C__talk_x2C__page_x2C__interface_x2C__web_x2C__website">
	<g>
		<g>
			<rect x="0.5" y="10.498" fill="#E6E9ED" width="63" height="45.004"/>
		</g>
		<g>
			<polygon fill="#5D9CEC" points="12.5,16.498 12.5,21.498 11.5,21.498 11.5,22.498 9.5,21.498 6.5,21.498 6.5,16.498 			"/>
		</g>
		<g>
			<rect x="3.5" y="45.5" fill="#CCD1D9" width="57" height="6"/>
		</g>
		<g>
			<path fill="#FFFFFF" d="M12.5,21.498v-5h-6v5h3l2,1v-1H12.5z M60.5,13.498v20h-57v-20H60.5z"/>
		</g>
		<g>
			<path fill="#CCD1D9" d="M63.5,9.498v1h-63v-1c0-0.549,0.45-1,1-1h61C63.05,8.498,63.5,8.949,63.5,9.498z"/>
		</g>
		<g>
			<path fill="#E6E9ED" d="M2.006,9.998c-0.276,0-0.505-0.223-0.505-0.5c0-0.275,0.219-0.5,0.494-0.5h0.011
				c0.275,0,0.5,0.225,0.5,0.5C2.506,9.775,2.281,9.998,2.006,9.998z"/>
		</g>
		<g>
			<path fill="#E6E9ED" d="M4.006,9.998c-0.276,0-0.505-0.223-0.505-0.5c0-0.275,0.219-0.5,0.494-0.5h0.011
				c0.275,0,0.5,0.225,0.5,0.5C4.506,9.775,4.281,9.998,4.006,9.998z"/>
		</g>
		<g>
			<path fill="#E6E9ED" d="M6.006,9.998c-0.276,0-0.505-0.223-0.505-0.5c0-0.275,0.219-0.5,0.494-0.5h0.011
				c0.275,0,0.5,0.225,0.5,0.5C6.506,9.775,6.281,9.998,6.006,9.998z"/>
		</g>
		<g>
			<g>
				<path fill="#CCD1D9" d="M56.499,17.998H16.5c-0.276,0-0.5-0.223-0.5-0.5c0-0.275,0.224-0.5,0.5-0.5h39.999
					c0.276,0,0.5,0.225,0.5,0.5C56.999,17.775,56.775,17.998,56.499,17.998z"/>
			</g>
			<g>
				<path fill="#CCD1D9" d="M56.499,20.998H16.5c-0.276,0-0.5-0.223-0.5-0.5c0-0.275,0.224-0.5,0.5-0.5h39.999
					c0.276,0,0.5,0.225,0.5,0.5C56.999,20.775,56.775,20.998,56.499,20.998z"/>
			</g>
			<g>
				<path fill="#CCD1D9" d="M56.499,23.998H16.5c-0.276,0-0.5-0.223-0.5-0.5c0-0.275,0.224-0.5,0.5-0.5h39.999
					c0.276,0,0.5,0.225,0.5,0.5C56.999,23.775,56.775,23.998,56.499,23.998z"/>
			</g>
			<g>
				<path fill="#CCD1D9" d="M36.5,26.998h-20c-0.276,0-0.5-0.223-0.5-0.5c0-0.275,0.224-0.5,0.5-0.5h20c0.276,0,0.5,0.225,0.5,0.5
					C37,26.775,36.776,26.998,36.5,26.998z"/>
			</g>
		</g>
		<g>
			<path fill="#E6E9ED" d="M56.499,49H16.5c-0.276,0-0.5-0.223-0.5-0.5c0-0.275,0.224-0.5,0.5-0.5h39.999c0.276,0,0.5,0.225,0.5,0.5
				C56.999,48.777,56.775,49,56.499,49z"/>
		</g>
		<g>
			<path fill="#E6E9ED" d="M22.5,30.998h-6c-0.276,0-0.5-0.223-0.5-0.5c0-0.275,0.224-0.5,0.5-0.5h6c0.276,0,0.5,0.225,0.5,0.5
				C23,30.775,22.776,30.998,22.5,30.998z"/>
		</g>
		<g>
			<path fill="#E6E9ED" d="M56.499,30.998h-6c-0.276,0-0.5-0.223-0.5-0.5c0-0.275,0.224-0.5,0.5-0.5h6c0.276,0,0.5,0.225,0.5,0.5
				C56.999,30.775,56.775,30.998,56.499,30.998z"/>
		</g>
		<g>
			<path fill="#E6E9ED" d="M7.5,49.5c-0.128,0-0.256-0.049-0.354-0.146l-0.999-0.998c-0.195-0.195-0.195-0.512,0-0.707
				s0.512-0.195,0.707,0l0.999,0.998c0.195,0.195,0.195,0.512,0,0.707C7.756,49.451,7.628,49.5,7.5,49.5z"/>
		</g>
		<g>
			<path fill="#E6E9ED" d="M7.5,49.5c-0.128,0-0.256-0.049-0.354-0.146c-0.195-0.195-0.195-0.512,0-0.707l0.999-0.998
				c0.195-0.195,0.512-0.195,0.707,0s0.195,0.512,0,0.707l-0.999,0.998C7.756,49.451,7.628,49.5,7.5,49.5z"/>
		</g>
		<g>
			<rect x="3.5" y="36.502" fill="#CCD1D9" width="57" height="6"/>
		</g>
		<g>
			<path fill="#E6E9ED" d="M56.499,40.002H16.5c-0.276,0-0.5-0.225-0.5-0.5c0-0.277,0.224-0.5,0.5-0.5h39.999
				c0.276,0,0.5,0.223,0.5,0.5C56.999,39.777,56.775,40.002,56.499,40.002z"/>
		</g>
		<g>
			<path fill="#E6E9ED" d="M7.5,40.502c-0.128,0-0.256-0.049-0.354-0.146l-0.999-1c-0.195-0.195-0.195-0.512,0-0.707
				s0.512-0.195,0.707,0l0.999,1c0.195,0.195,0.195,0.512,0,0.707C7.756,40.453,7.628,40.502,7.5,40.502z"/>
		</g>
		<g>
			<path fill="#E6E9ED" d="M7.5,40.502c-0.128,0-0.256-0.049-0.354-0.146c-0.195-0.195-0.195-0.512,0-0.707l0.999-1
				c0.195-0.195,0.512-0.195,0.707,0s0.195,0.512,0,0.707l-0.999,1C7.756,40.453,7.628,40.502,7.5,40.502z"/>
		</g>
	</g>
</g>
<g id="_x33__analytics_x2C__program_x2C__page_x2C__chat_x2C__graph_x2C__interface_x2C__monitoring">
</g>
<g id="_x32__program_x2C__platform_x2C__window_x2C__website_x2C__web_x2C__crown_x2C__page_x2C__interface">
</g>
<g id="_x31__operating_x2C__system_x2C__monitor_x2C__computer_x2C__folder_x2C__interface_x2C__decktop">
</g>
</svg>
